mtllib materials.mtl
v -0.08435705 0.05196071 -0.07692194
v -0.07132936 0.05108058 -0.06504232
v -0.07200095 0.05591881 -0.06176138
v -0.08719996 0.05694556 -0.07562095
v -0.07450536 0.05868244 -0.05720997
v -0.09129384 0.0598166 -0.07251894
v -0.07817149 0.0586307 -0.0526076
v -0.09554175 0.0598042 -0.06844711
v -0.082017 0.05577779 -0.04918754
v -0.09880549 0.05691195 -0.06449652
v -0.08501151 0.05088782 -0.04786617
v -0.1002105 0.05191457 -0.06172574
v -0.08635265 0.04527116 -0.04899752
v -0.09938034 0.04615128 -0.06087714
v -0.08568102 0.04043293 -0.05227846
v -0.09653744 0.04116631 -0.06217813
v -0.08317664 0.0376693 -0.05682981
v -0.09244356 0.03829539 -0.06528014
v -0.07951051 0.03772104 -0.06143218
v -0.08819565 0.03830779 -0.06935191
v -0.075665 0.04057407 -0.06485224
v -0.08493191 0.04120004 -0.07330251
v -0.07267046 0.04546392 -0.06617361
v -0.08352688 0.04619741 -0.07607335
v -0.05883983 0.04179633 -0.05670947
v -0.05742985 0.04508722 -0.05203974
v -0.05841041 0.046718 -0.04647166
v -0.06151879 0.04625177 -0.04149717
v -0.06592205 0.04381335 -0.03844923
v -0.07044041 0.04005623 -0.03814453
v -0.07386312 0.03598702 -0.04066467
v -0.0752731 0.03269601 -0.0453344
v -0.07429251 0.03106523 -0.05090249
v -0.07118416 0.03153145 -0.05587697
v -0.06678087 0.03396988 -0.05892485
v -0.06226254 0.03772712 -0.05922961
v -0.05023503 0.02659559 -0.05415618
v -0.04739094 0.02735305 -0.04906088
v -0.04732165 0.02712929 -0.0431813
v -0.05004573 0.02598417 -0.03809279
v -0.05483329 0.02422464 -0.03515887
v -0.0604015 0.02232206 -0.03516573
v -0.06525832 0.02078629 -0.03811139
v -0.06810245 0.02002883 -0.04320669
v -0.06817174 0.02025259 -0.04908627
v -0.06544763 0.02139771 -0.05417478
v -0.06066009 0.02315736 -0.0571087
v -0.05509189 0.02505982 -0.05710191
v -0.04782066 0.009551525 -0.05806667
v -0.04457414 0.007468343 -0.05362308
v -0.04421028 0.005164981 -0.04822057
v -0.04682654 0.003258824 -0.04330677
v -0.05172193 0.002260327 -0.04019821
v -0.0575847 0.002437353 -0.03972787
v -0.06284395 0.003742218 -0.04202187
v -0.06609043 0.0058254 -0.0464654
v -0.06645432 0.008128762 -0.0518679
v -0.06383803 0.01003504 -0.05678171
v -0.05894268 0.01103342 -0.05989027
v -0.05307987 0.01085651 -0.06036061
v -0.05224356 -0.004768968 -0.067393
v -0.04973423 -0.009238958 -0.06450385
v -0.04991001 -0.01328945 -0.06023926
v -0.0527238 -0.01583529 -0.05574191
v -0.05742165 -0.01619411 -0.05221689
v -0.06274477 -0.01426995 -0.05060863
v -0.06726688 -0.01057827 -0.05134821
v -0.06977621 -0.006108284 -0.05423737
v -0.06960043 -0.002057791 -0.05850196
v -0.06678665 0.0004880428 -0.06299931
v -0.06208879 0.0008468628 -0.06652433
v -0.05676565 -0.001077294 -0.06813258
v -0.06231871 -0.01252878 -0.07963628
v -0.06148854 -0.01829207 -0.07878768
v -0.06289357 -0.02328944 -0.0760169
v -0.06615731 -0.0261817 -0.07206631
v -0.07040522 -0.0261941 -0.06799448
v -0.0744991 -0.02332306 -0.06489247
v -0.077342 -0.0183382 -0.06359148
v -0.07817218 -0.01257491 -0.06444007
v -0.07676715 -0.007577538 -0.06721091
v -0.0735034 -0.004685283 -0.07116151
v -0.0692555 -0.004672885 -0.07523328
v -0.06516162 -0.007543802 -0.07833529
v -0.07534641 -0.01164865 -0.09151596
v -0.07668754 -0.01726532 -0.09264725
v -0.07968205 -0.02215528 -0.09132588
v -0.08352759 -0.0250082 -0.08790582
v -0.0871937 -0.02505994 -0.08330345
v -0.08969811 -0.02229631 -0.07875204
v -0.09036973 -0.01745808 -0.0754711
v -0.0890286 -0.01184142 -0.07433981
v -0.08603409 -0.006951571 -0.07566118
v -0.08218855 -0.004098535 -0.07908124
v -0.07852244 -0.004046798 -0.08368361
v -0.07601804 -0.006810427 -0.08823502
v -0.08783594 -0.002364516 -0.09984875
v -0.09125865 -0.006433725 -0.1023689
v -0.095777 -0.01019084 -0.1020642
v -0.1001803 -0.01262927 -0.09901625
v -0.1032887 -0.0130955 -0.09404176
v -0.1042692 -0.01146472 -0.08847368
v -0.1028592 -0.008173823 -0.08380395
v -0.09943652 -0.004104614 -0.08128381
v -0.09491819 -0.0003473759 -0.08158857
v -0.0905149 0.00209105 -0.08463645
v -0.08740655 0.002557278 -0.08961093
v -0.08642596 0.0009264946 -0.09517902
v -0.09644073 0.01283622 -0.102402
v -0.1012976 0.01130044 -0.1053477
v -0.1068658 0.009397864 -0.1053545
v -0.1116533 0.007638335 -0.1024206
v -0.1143774 0.006493211 -0.09733212
v -0.1143081 0.006269455 -0.09145254
v -0.111464 0.007026911 -0.08635724
v -0.1066072 0.008562684 -0.08341151
v -0.101039 0.01046515 -0.08340472
v -0.09625143 0.01222479 -0.08633864
v -0.09352732 0.01336992 -0.09142715
v -0.09359661 0.01359367 -0.09730673
v -0.09885511 0.02988029 -0.09849161
v -0.1041144 0.03118515 -0.1007856
v -0.1099771 0.03136218 -0.1003152
v -0.1148725 0.03036368 -0.09720665
v -0.1174888 0.02845752 -0.09229285
v -0.1171249 0.02615416 -0.08689034
v -0.1138784 0.02407098 -0.08244675
v -0.1086192 0.02276599 -0.08015281
v -0.1027564 0.02258909 -0.08062315
v -0.09786102 0.02358747 -0.08373171
v -0.09524474 0.02549374 -0.08864552
v -0.09560862 0.0277971 -0.09404802
v -0.09443218 0.04420078 -0.08916521
v -0.09895426 0.04789245 -0.08990479
v -0.1042774 0.04981673 -0.08829653
v -0.1089753 0.04945779 -0.08477151
v -0.111789 0.04691195 -0.08027416
v -0.1119648 0.04286146 -0.07600957
v -0.1094555 0.03839147 -0.07312042
v -0.1049334 0.0346998 -0.07238084
v -0.09961024 0.03277564 -0.07398903
v -0.09491241 0.03313458 -0.07751411
v -0.09209859 0.03568029 -0.08201146
v -0.09192285 0.03973091 -0.08627605
v 0.05720755 0.02048039 0.05670118
v 0.05377927 0.01750159 0.06044263
v -0.06235334 0.01944494 -0.0444243
v -0.05892506 0.02242374 -0.04816568
v 0.05178517 0.01238477 0.06255609
v -0.06434745 0.01432812 -0.04231077
v 0.05175957 0.006501079 0.06247544
v -0.06437305 0.008444428 -0.04239148
v 0.05370936 0.001427054 0.06022215
v -0.06242326 0.003370404 -0.04464477
v 0.05711204 -0.001477718 0.05640006
v -0.05902058 0.0004656315 -0.0484668
v 0.06105593 -0.001435041 0.05203331
v -0.05507669 0.0005083084 -0.05283356
v 0.06448421 0.00154388 0.04829192
v -0.05164841 0.00348711 -0.056575
v 0.06647831 0.006660581 0.0461784
v -0.0496543 0.00860393 -0.05868846
v 0.06650391 0.01254427 0.04625911
v -0.0496287 0.01448762 -0.05860782
v 0.06455413 0.0176183 0.0485124
v -0.05157849 0.01956165 -0.05635452
v 0.06115142 0.02052307 0.05233443
v -0.05498117 0.02246642 -0.05253243
v 0.04640704 0.004652262 0.05739617
v 0.05224559 0.005249262 0.0569725
v 0.05604044 -0.03635669 0.05063409
v 0.05020189 -0.03695381 0.05105776
v 0.05704856 0.006185293 0.05370444
v 0.06084341 -0.03542078 0.04736602
v 0.05952904 0.007209301 0.04846776
v 0.06332386 -0.03439677 0.04212934
v 0.05902231 0.008046985 0.04266548
v 0.06281716 -0.03355896 0.03632706
v 0.05566424 0.008473873 0.03785241
v 0.05945906 -0.03313208 0.03151399
v 0.05035454 0.008375764 0.0353182
v 0.05414939 -0.0332303 0.02897978
v 0.044516 0.007778645 0.03574187
v 0.04831085 -0.0338273 0.02940345
v 0.03971303 0.006842732 0.03900993
v 0.04350787 -0.03476334 0.03267151
v 0.03723258 0.005818725 0.04424661
v 0.0410274 -0.03578734 0.0379082
v 0.03773928 0.004980922 0.05004889
v 0.04153413 -0.03662503 0.04371047
v 0.04109737 0.004554033 0.05486196
v 0.04489219 -0.03705192 0.04852355
v 0.03134835 0.00707221 0.03900081
v 0.03639257 0.007781029 0.03605503
v 0.0388996 -0.03508449 0.03003341
v 0.03385538 -0.03579342 0.03297925
v 0.03925565 0.008659959 0.03098994
v 0.04176265 -0.03420556 0.02496839
v 0.03917038 0.009473562 0.02516282
v 0.04167739 -0.03339195 0.01914126
v 0.03615963 0.01000381 0.02013499
v 0.03866667 -0.03286183 0.01411343
v 0.03103012 0.01010847 0.0172537
v 0.03353715 -0.03275704 0.01123214
v 0.02515632 0.009759784 0.01729095
v 0.02766335 -0.03310585 0.01126939
v 0.0201121 0.009050846 0.02023679
v 0.02261913 -0.03381467 0.01421517
v 0.01724905 0.008171916 0.02530181
v 0.01975605 -0.0346936 0.01928025
v 0.01733431 0.007358313 0.03112894
v 0.01984131 -0.0355072 0.02510738
v 0.02034503 0.006828189 0.03615677
v 0.02285206 -0.03603745 0.03013521
v 0.02547455 0.006723404 0.03903806
v 0.02798158 -0.03614211 0.0330165
vn 0.6607984 0.2555225 -0.7057291
vn 0.4107091 0.6940497 -0.5912808
vn 0.05057054 0.9466068 -0.3183992
vn -0.3231183 0.9455214 0.03979713
vn -0.6102279 0.6910843 0.3873299
vn -0.7338274 0.2514717 0.6310779
vn -0.6607984 -0.2555225 0.7057291
vn -0.4107089 -0.6940499 0.5912807
vn -0.0505705 -0.9466068 0.3183992
vn 0.3231183 -0.9455214 -0.0397971
vn 0.6102278 -0.6910843 -0.3873298
vn 0.7338274 -0.2514714 -0.631078
vn 0.6607984 0.2555225 -0.7057291
vn 0.6017166 0.6811458 -0.4171059
vn 0.3814054 0.9242566 -0.01671947
vn 0.05889685 0.9197136 0.3881469
vn -0.279393 0.668734 0.6890097
vn -0.5428197 0.2385678 0.8052527
vn -0.6607984 -0.2555225 0.7057291
vn -0.6017166 -0.681146 0.4171057
vn -0.3814054 -0.9242566 0.01671943
vn -0.05889691 -0.9197136 -0.3881469
vn 0.279393 -0.6687341 -0.6890096
vn 0.5428199 -0.2385675 -0.8052528
vn 0.6607984 0.2555225 -0.7057291
vn 0.7848336 0.5450236 -0.2949328
vn 0.6985732 0.6884861 0.1948905
vn 0.4251307 0.6474692 0.6324931
vn 0.03777475 0.4329634 0.9006196
vn -0.3597029 0.1024456 0.9274258
vn -0.6607984 -0.2555225 0.7057291
vn -0.7848336 -0.5450238 0.2949325
vn -0.6985732 -0.6884862 -0.1948905
vn -0.4251307 -0.6474692 -0.632493
vn -0.03777482 -0.4329636 -0.9006196
vn 0.3597031 -0.1024454 -0.9274258
vn 0.6607984 0.2555225 -0.7057291
vn 0.9109938 0.322157 -0.2574978
vn 0.917089 0.3024698 0.25973
vn 0.677451 0.201736 0.7073631
vn 0.2562906 0.04694724 0.965459
vn -0.2335427 -0.120421 0.9648609
vn -0.6607984 -0.2555225 0.7057291
vn -0.9109938 -0.3221571 0.2574975
vn -0.917089 -0.3024698 -0.25973
vn -0.6774511 -0.201736 -0.7073631
vn -0.2562907 -0.04694728 -0.9654589
vn 0.2335429 0.1204211 -0.9648609
vn 0.6607984 0.2555225 -0.7057291
vn 0.9463927 0.07226296 -0.3148313
vn 0.9784018 -0.1303595 0.1604252
vn 0.7482489 -0.2980521 0.592696
vn 0.3176033 -0.385882 0.8661543
vn -0.1981437 -0.3703151 0.9075273
vn -0.6607984 -0.2555225 0.7057291
vn -0.9463928 -0.07226282 0.3148313
vn -0.9784018 0.1303595 -0.1604252
vn -0.748249 0.2980521 -0.592696
vn -0.3176035 0.385882 -0.8661543
vn 0.198144 0.370315 -0.9075273
vn 0.6607984 0.2555225 -0.7057291
vn 0.8815453 -0.1376998 -0.4515712
vn 0.8660828 -0.4940255 -0.07641511
vn 0.6185541 -0.7179775 0.3192163
vn 0.2052844 -0.749548 0.629314
vn -0.2629911 -0.5802778 0.7707875
vn -0.6607984 -0.2555225 0.7057291
vn -0.8815454 0.1376998 0.4515711
vn -0.8660828 0.4940255 0.07641508
vn -0.6185542 0.7179775 -0.3192163
vn -0.2052845 0.7495481 -0.6293139
vn 0.2629914 0.5802776 -0.7707875
vn 0.6607984 0.2555225 -0.7057291
vn 0.7338273 -0.2514717 -0.6310779
vn 0.6102278 -0.6910843 -0.3873299
vn 0.3231182 -0.9455214 -0.03979713
vn -0.05057066 -0.9466069 0.3183993
vn -0.4107091 -0.6940497 0.5912808
vn -0.6607984 -0.2555225 0.7057291
vn -0.7338273 0.2514719 0.6310778
vn -0.6102278 0.6910843 0.3873298
vn -0.3231182 0.9455214 0.03979715
vn 0.05057056 0.9466068 -0.3183991
vn 0.4107093 0.6940495 -0.5912809
vn 0.6607984 0.2555225 -0.7057291
vn 0.5428197 -0.2385678 -0.8052529
vn 0.2793929 -0.6687341 -0.6890097
vn -0.05889717 -0.9197135 -0.388147
vn -0.3814055 -0.9242566 0.01671945
vn -0.6017167 -0.6811458 0.4171058
vn -0.6607984 -0.2555225 0.7057291
vn -0.5428196 0.2385679 0.8052529
vn -0.2793928 0.6687341 0.6890096
vn 0.05889715 0.9197135 0.3881471
vn 0.3814054 0.9242566 -0.01671934
vn 0.6017168 0.6811456 -0.417106
vn 0.6607984 0.2555225 -0.7057291
vn 0.3597029 -0.1024456 -0.9274258
vn -0.03777482 -0.4329635 -0.9006196
vn -0.4251308 -0.6474692 -0.632493
vn -0.6985732 -0.688486 -0.1948904
vn -0.7848336 -0.5450236 0.2949328
vn -0.6607984 -0.2555225 0.7057291
vn -0.3597026 0.1024457 0.9274259
vn 0.03777487 0.4329635 0.9006196
vn 0.4251308 0.6474692 0.6324931
vn 0.6985732 0.688486 0.1948905
vn 0.7848336 0.5450235 -0.2949331
vn 0.6607984 0.2555225 -0.7057291
vn 0.2335427 0.120421 -0.9648609
vn -0.2562907 -0.04694729 -0.965459
vn -0.6774511 -0.2017361 -0.7073631
vn -0.9170891 -0.3024698 -0.2597299
vn -0.9109938 -0.3221571 0.2574978
vn -0.6607984 -0.2555225 0.7057291
vn -0.2335424 -0.1204209 0.964861
vn 0.2562907 0.0469473 0.9654589
vn 0.6774511 0.201736 0.7073631
vn 0.917089 0.3024698 0.25973
vn 0.9109937 0.322157 -0.2574981
vn 0.6607984 0.2555225 -0.7057291
vn 0.1981437 0.3703151 -0.9075273
vn -0.3176034 0.3858819 -0.8661543
vn -0.748249 0.298052 -0.592696
vn -0.9784018 0.1303593 -0.1604251
vn -0.9463927 -0.07226296 0.3148313
vn -0.6607984 -0.2555225 0.7057291
vn -0.1981435 -0.370315 0.9075274
vn 0.3176035 -0.3858819 0.8661543
vn 0.748249 -0.298052 0.592696
vn 0.9784018 -0.1303594 0.1604253
vn 0.9463926 0.07226306 -0.3148316
vn 0.6607984 0.2555225 -0.7057291
vn 0.2629912 0.5802779 -0.7707874
vn -0.2052844 0.7495483 -0.6293138
vn -0.6185541 0.7179777 -0.3192161
vn -0.8660828 0.4940255 0.07641537
vn -0.8815453 0.1377 0.4515713
vn -0.6607984 -0.2555225 0.7057291
vn -0.262991 -0.580278 0.7707874
vn 0.2052844 -0.7495483 0.6293137
vn 0.6185541 -0.7179777 0.3192161
vn 0.8660827 -0.4940258 -0.07641525
vn 0.8815452 -0.1376995 -0.4515715
vn -0.1692697 0.9639466 0.2053171
vn -0.4708561 0.7018989 0.5344463
vn -0.646277 0.2517779 0.7203711
vn -0.6485285 -0.2658067 0.713273
vn -0.4770072 -0.7121687 0.515054
vn -0.1776724 -0.9677055 0.1788268
vn 0.1692698 -0.9639465 -0.2053171
vn 0.4708563 -0.7018988 -0.5344464
vn 0.646277 -0.2517778 -0.7203711
vn 0.6485285 0.2658067 -0.713273
vn 0.4770073 0.7121686 -0.515054
vn 0.1776721 0.9677057 -0.1788265
vn 0.7421316 -0.01241872 0.6701394
vn -0.7421316 0.01241872 -0.6701394
vn -0.1736306 -0.1637774 0.971097
vn 0.3399853 -0.1112531 0.9338269
vn 0.7625026 -0.02891864 0.6463386
vn 0.9807077 0.06116452 0.1856645
vn 0.9361331 0.1348587 -0.3247584
vn 0.6407225 0.1724176 -0.7481624
vn 0.1736305 0.1637774 -0.971097
vn -0.3399856 0.1112531 -0.9338269
vn -0.7625026 0.02891864 -0.6463386
vn -0.9807077 -0.06116452 -0.1856645
vn -0.9361331 -0.1348587 0.3247582
vn -0.6407222 -0.1724176 0.7481626
vn -0.08980432 0.9845994 0.1499977
vn 0.08980432 -0.9845994 -0.1499977
vn 0.2723553 -0.1182128 0.9549075
vn 0.7160956 -0.05585675 0.6957637
vn 0.9679586 0.02146608 0.2501906
vn 0.9604579 0.09303708 -0.2624209
vn 0.6956033 0.1396789 -0.7047169
vn 0.2443624 0.1488938 -0.9581845
vn -0.2723553 0.1182128 -0.9549075
vn -0.7160957 0.05585672 -0.6957636
vn -0.9679586 -0.02146609 -0.2501906
vn -0.9604579 -0.09303708 0.2624208
vn -0.6956034 -0.1396789 0.7047168
vn -0.2443621 -0.1488938 0.9581847
vn -0.05782031 0.9886202 0.1388776
vn 0.05782031 -0.9886202 -0.1388776
usemtl mat19
f 4//1 3//1 2//1 1//1
f 6//2 5//2 3//2 4//2
f 8//3 7//3 5//3 6//3
f 10//4 9//4 7//4 8//4
f 12//5 11//5 9//5 10//5
f 14//6 13//6 11//6 12//6
f 16//7 15//7 13//7 14//7
f 18//8 17//8 15//8 16//8
f 20//9 19//9 17//9 18//9
f 22//10 21//10 19//10 20//10
f 24//11 23//11 21//11 22//11
f 1//12 2//12 23//12 24//12
f 3//13 26//13 25//13 2//13
f 5//14 27//14 26//14 3//14
f 7//15 28//15 27//15 5//15
f 9//16 29//16 28//16 7//16
f 11//17 30//17 29//17 9//17
f 13//18 31//18 30//18 11//18
f 15//19 32//19 31//19 13//19
f 17//20 33//20 32//20 15//20
f 19//21 34//21 33//21 17//21
f 21//22 35//22 34//22 19//22
f 23//23 36//23 35//23 21//23
f 2//24 25//24 36//24 23//24
f 26//25 38//25 37//25 25//25
f 27//26 39//26 38//26 26//26
f 28//27 40//27 39//27 27//27
f 29//28 41//28 40//28 28//28
f 30//29 42//29 41//29 29//29
f 31//30 43//30 42//30 30//30
f 32//31 44//31 43//31 31//31
f 33//32 45//32 44//32 32//32
f 34//33 46//33 45//33 33//33
f 35//34 47//34 46//34 34//34
f 36//35 48//35 47//35 35//35
f 25//36 37//36 48//36 36//36
f 38//37 50//37 49//37 37//37
f 39//38 51//38 50//38 38//38
f 40//39 52//39 51//39 39//39
f 41//40 53//40 52//40 40//40
f 42//41 54//41 53//41 41//41
f 43//42 55//42 54//42 42//42
f 44//43 56//43 55//43 43//43
f 45//44 57//44 56//44 44//44
f 46//45 58//45 57//45 45//45
f 47//46 59//46 58//46 46//46
f 48//47 60//47 59//47 47//47
f 37//48 49//48 60//48 48//48
f 50//49 62//49 61//49 49//49
f 51//50 63//50 62//50 50//50
f 52//51 64//51 63//51 51//51
f 53//52 65//52 64//52 52//52
f 54//53 66//53 65//53 53//53
f 55//54 67//54 66//54 54//54
f 56//55 68//55 67//55 55//55
f 57//56 69//56 68//56 56//56
f 58//57 70//57 69//57 57//57
f 59//58 71//58 70//58 58//58
f 60//59 72//59 71//59 59//59
f 49//60 61//60 72//60 60//60
f 62//61 74//61 73//61 61//61
f 63//62 75//62 74//62 62//62
f 64//63 76//63 75//63 63//63
f 65//64 77//64 76//64 64//64
f 66//65 78//65 77//65 65//65
f 67//66 79//66 78//66 66//66
f 68//67 80//67 79//67 67//67
f 69//68 81//68 80//68 68//68
f 70//69 82//69 81//69 69//69
f 71//70 83//70 82//70 70//70
f 72//71 84//71 83//71 71//71
f 61//72 73//72 84//72 72//72
f 74//73 86//73 85//73 73//73
f 75//74 87//74 86//74 74//74
f 76//75 88//75 87//75 75//75
f 77//76 89//76 88//76 76//76
f 78//77 90//77 89//77 77//77
f 79//78 91//78 90//78 78//78
f 80//79 92//79 91//79 79//79
f 81//80 93//80 92//80 80//80
f 82//81 94//81 93//81 81//81
f 83//82 95//82 94//82 82//82
f 84//83 96//83 95//83 83//83
f 73//84 85//84 96//84 84//84
f 86//85 98//85 97//85 85//85
f 87//86 99//86 98//86 86//86
f 88//87 100//87 99//87 87//87
f 89//88 101//88 100//88 88//88
f 90//89 102//89 101//89 89//89
f 91//90 103//90 102//90 90//90
f 92//91 104//91 103//91 91//91
f 93//92 105//92 104//92 92//92
f 94//93 106//93 105//93 93//93
f 95//94 107//94 106//94 94//94
f 96//95 108//95 107//95 95//95
f 85//96 97//96 108//96 96//96
f 98//97 110//97 109//97 97//97
f 99//98 111//98 110//98 98//98
f 100//99 112//99 111//99 99//99
f 101//100 113//100 112//100 100//100
f 102//101 114//101 113//101 101//101
f 103//102 115//102 114//102 102//102
f 104//103 116//103 115//103 103//103
f 105//104 117//104 116//104 104//104
f 106//105 118//105 117//105 105//105
f 107//106 119//106 118//106 106//106
f 108//107 120//107 119//107 107//107
f 97//108 109//108 120//108 108//108
f 110//109 122//109 121//109 109//109
f 111//110 123//110 122//110 110//110
f 112//111 124//111 123//111 111//111
f 113//112 125//112 124//112 112//112
f 114//113 126//113 125//113 113//113
f 115//114 127//114 126//114 114//114
f 116//115 128//115 127//115 115//115
f 117//116 129//116 128//116 116//116
f 118//117 130//117 129//117 117//117
f 119//118 131//118 130//118 118//118
f 120//119 132//119 131//119 119//119
f 109//120 121//120 132//120 120//120
f 122//121 134//121 133//121 121//121
f 123//122 135//122 134//122 122//122
f 124//123 136//123 135//123 123//123
f 125//124 137//124 136//124 124//124
f 126//125 138//125 137//125 125//125
f 127//126 139//126 138//126 126//126
f 128//127 140//127 139//127 127//127
f 129//128 141//128 140//128 128//128
f 130//129 142//129 141//129 129//129
f 131//130 143//130 142//130 130//130
f 132//131 144//131 143//131 131//131
f 121//132 133//132 144//132 132//132
f 134//133 4//133 1//133 133//133
f 135//134 6//134 4//134 134//134
f 136//135 8//135 6//135 135//135
f 137//136 10//136 8//136 136//136
f 138//137 12//137 10//137 137//137
f 139//138 14//138 12//138 138//138
f 140//139 16//139 14//139 139//139
f 141//140 18//140 16//140 140//140
f 142//141 20//141 18//141 141//141
f 143//142 22//142 20//142 142//142
f 144//143 24//143 22//143 143//143
f 133//144 1//144 24//144 144//144
f 148//145 147//145 146//145 145//145
f 147//146 150//146 149//146 146//146
f 150//147 152//147 151//147 149//147
f 152//148 154//148 153//148 151//148
f 154//149 156//149 155//149 153//149
f 156//150 158//150 157//150 155//150
f 158//151 160//151 159//151 157//151
f 160//152 162//152 161//152 159//152
f 162//153 164//153 163//153 161//153
f 164//154 166//154 165//154 163//154
f 166//155 168//155 167//155 165//155
f 168//156 148//156 145//156 167//156
f 145//157 146//157 149//157 151//157 153//157 155//157 157//157 159//157 161//157 163//157 165//157 167//157
f 168//158 166//158 164//158 162//158 160//158 158//158 156//158 154//158 152//158 150//158 147//158 148//158
f 172//159 171//159 170//159 169//159
f 171//160 174//160 173//160 170//160
f 174//161 176//161 175//161 173//161
f 176//162 178//162 177//162 175//162
f 178//163 180//163 179//163 177//163
f 180//164 182//164 181//164 179//164
f 182//165 184//165 183//165 181//165
f 184//166 186//166 185//166 183//166
f 186//167 188//167 187//167 185//167
f 188//168 190//168 189//168 187//168
f 190//169 192//169 191//169 189//169
f 192//170 172//170 169//170 191//170
f 169//171 170//171 173//171 175//171 177//171 179//171 181//171 183//171 185//171 187//171 189//171 191//171
f 192//172 190//172 188//172 186//172 184//172 182//172 180//172 178//172 176//172 174//172 171//172 172//172
f 196//173 195//173 194//173 193//173
f 195//174 198//174 197//174 194//174
f 198//175 200//175 199//175 197//175
f 200//176 202//176 201//176 199//176
f 202//177 204//177 203//177 201//177
f 204//178 206//178 205//178 203//178
f 206//179 208//179 207//179 205//179
f 208//180 210//180 209//180 207//180
f 210//181 212//181 211//181 209//181
f 212//182 214//182 213//182 211//182
f 214//183 216//183 215//183 213//183
f 216//184 196//184 193//184 215//184
f 193//185 194//185 197//185 199//185 201//185 203//185 205//185 207//185 209//185 211//185 213//185 215//185
f 216//186 214//186 212//186 210//186 208//186 206//186 204//186 202//186 200//186 198//186 195//186 196//186
